# xmcd
# 
# Track frame offsets:
#     150
#     13550
#     26190
#     39217
#     51723
#     66363
#     80084
#     92354
#     108045
#     122689
#     134287
#     146089
#     158396
#     173657
#     184684
#     197412
#     211672
#     225699
#     237476
#     249726
# 
# Disc length: 3466
# 
# Revision: 0
# Processed by: cddbd v1.5.2PL0 Copyright (c) Steve Scherf et al.
# Submitted via: fre:ac v1.0.17
# 
DISCID=090d8814
DTITLE=B.B.King - Can't Kick The Blues Disc 3
DYEAR=2011
DGENRE=Blues
TTITLE0=Woke Up This Morning
TTITLE1=Boogie WoogieWoman
TTITLE2=Bad Luck
TTITLE3=Highway Bound
TTITLE4=Please Remember Me
TTITLE5=I Want To Get Married
TTITLE6=I Gotta A Gal
TTITLE7=My Own Fault, Darlin'
TTITLE8=Past Day (Don't Have To Cry)
TTITLE9=Hard Workin' Woman
TTITLE10=Ruby Lee
TTITLE11=Please Hurry Home
TTITLE12=Can't We Talk It Over
TTITLE13=Got Find My Baby
TTITLE14=Praying The Lord
TTITLE15=Why Did You Leave Me
TTITLE16=Low Down Dirty Baby
TTITLE17=Dark Is The Night (Part 1)
TTITLE18=Dark Is The Night (Part 2)
TTITLE19=Time To Say Goodbye
EXTD=
EXTT0=
EXTT1=
EXTT2=
EXTT3=
EXTT4=
EXTT5=
EXTT6=
EXTT7=
EXTT8=
EXTT9=
EXTT10=
EXTT11=
EXTT12=
EXTT13=
EXTT14=
EXTT15=
EXTT16=
EXTT17=
EXTT18=
EXTT19=
PLAYORDER=
